# xmcd
#
# Track frame offsets:
# 150
# 24711
# 40056
# 55842
# 79206
# 98113
# 110656
# 125527
# 139430
# 148423
#
# Disc length: 2158 seconds
#
#
# Revision: 0
# Processed by: cddbd v1.5.2PL0 Copyright (c) Steve Scherf et al.
# Submitted via: FreeRIP 2.945 
#
DISCID=95086c0a
DTITLE=Johnny Cash - Christmas With Johnny Cash CD 2
DYEAR=1900
DGENRE=Country
TTITLE0=King of Love
TTITLE1=Jingle Bells
TTITLE2=That Christmas Feeling
TTITLE3=My Merry Christmas Song, Merry Christmas Mary
TTITLE4=Christmas Time's A-Comin'
TTITLE5=Christmas With You
TTITLE6=Christmas As I Knew It
TTITLE7=When You're Twenty-One
TTITLE8=An Old-Fashioned Tree
TTITLE9=Silent Night
EXTD=
EXTT0=
EXTT1=
EXTT2=
EXTT3=
EXTT4=
EXTT5=
EXTT6=
EXTT7=
EXTT8=
EXTT9=
PLAYORDER=
